# xmcd
#
# Track frame offsets:
#	150
#	10542
#	19870
#	29957
#	40895
#	50447
#	60720
#	70897
#	83625
#	93505
#	102802
#	114732
#	126212
#	137212
#	150712
#	163462
#	173402
#	185517
#	198367
#	209917
#	222990
#	233852
#
# Disc length: 3279 seconds
#
# Revision: 1
# Processed by: cddbd v1.5.2PL0 Copyright (c) Steve Scherf et al.
# Submitted via: EasyCDDAExtractor 12.0.0.1
#
DISCID=410ccd16
DTITLE=Wilf "Montana Slim" Carter - Montana Slim: A Prairie (Canadian) Legend 
DTITLE=Disc 04
DYEAR=1993
DGENRE=Country
TTITLE0=Goodbye Maria (I'm Off To Korea)
TTITLE1=Driftwood On The River
TTITLE2=Manhunt
TTITLE3=(All You Gave Me Was) Mockingbird Love
TTITLE4=Square-Dance Boogie
TTITLE5=Sweet Little Lover
TTITLE6=Huggin', Squeezin', Kissin', Teasin'
TTITLE7=Sleep Little One Sleep
TTITLE8=Alabama Saturday Night
TTITLE9=Hot Foot Boogie
TTITLE10=I Remember The Rodeo
TTITLE11=Pete Knight, The King Of The Cowboys
TTITLE12=When The Iceworms Nest Again
TTITLE13=My Little Grey Haired Mother In The West
TTITLE14=He Rode The Strawberry Roan
TTITLE15=Rattlin' Cannonball
TTITLE16=The Calgary Roundup
TTITLE17=That Silver Haired Daddy Of Mine
TTITLE18=The Smoke Went Up The Chimney Just The Same
TTITLE19=The Capture Of Albert Johnson
TTITLE20=Beautiful Girl Of The Prairie
TTITLE21=Singing In My Last Roundup
EXTD=
EXTT0=
EXTT1=
EXTT2=
EXTT3=
EXTT4=
EXTT5=
EXTT6=
EXTT7=
EXTT8=
EXTT9=
EXTT10=
EXTT11=
EXTT12=
EXTT13=
EXTT14=
EXTT15=
EXTT16=
EXTT17=
EXTT18=
EXTT19=
EXTT20=
EXTT21=
PLAYORDER=
